<!--version="1.0"-->
<!DOCTYPE html PUBLIC "-//W3C//DTD SVG 1.1//EN" "http://www.w3.org/Graphics/SVG/1.1/DTD/svg11.dtd">
<!-- Uploaded to: SVG Repo, www.svgrepo.com, Generator: SVG Repo Mixer Tools --><svg width="800" height="800"
    viewBox="0 0 32 32" enable-background="new 0 0 32 32" id="_x3C_Layer_x3E_" version="1.1" xml:space="preserve"
    xmlns="http://www.w3.org/2000/svg" preserveAspectRatio="xMidYMid meet" zoomAndPan="magnify"
    contentScriptType="application/ecmascript" contentStyleType="text/css">
    <g id="car_x2C__salesman_x2C__service_x2C__manager_x2C__person">
        <g id="XMLID_339_">
            <path d="M12.5 27.5v2a1 1 0 0 1-1 1h-2" fill="none" id="XMLID_336_" stroke="#FFFAFA" stroke-linecap="round"
                stroke-linejoin="round" stroke-miterlimit="10" />
            <path d="M29.5 27.5v2a1 1 0 0 1-1 1h-1a1 1 0 0 1-1-1v-2" fill="none" id="XMLID_6229_" stroke="#FFFAFA"
                stroke-linecap="round" stroke-linejoin="round" stroke-miterlimit="10" />
            <line fill="none" id="XMLID_5901_" stroke="	#FFFAFA" stroke-linecap="round" stroke-linejoin="round"
                stroke-miterlimit="10" x1="30.5" x2="11.5" y1="27.5" y2="27.5" />
            <path d="M11.496 20.926c1.715-.323 4.285-.426 8.004-.426 8.5 0 11 .583 11 3v1.188" fill="none"
                id="XMLID_5891_" stroke="#FFFAFA" stroke-linecap="round" stroke-linejoin="round"
                stroke-miterlimit="10" />
            <path d="M26.5 25.5v-1c0-.55.45-1 1-1h3v2h-4z" fill="none" id="XMLID_351_" stroke="#FFFAFA"
                stroke-linecap="round" stroke-linejoin="round" stroke-miterlimit="10" />
            <path d="M11 23.5h.5c.55 0 1 .45 1 1v1h-3" fill="none" id="XMLID_337_" stroke="	#FFFAFA"
                stroke-linecap="round" stroke-linejoin="round" stroke-miterlimit="10" />
            <path d="M14.5 25.5h0a2 2 0 0 1 2-2h6a2 2 0 0 1 2 2h0" fill="none" id="XMLID_5872_" stroke="#FFFAFA"
                stroke-linecap="round" stroke-linejoin="round" stroke-miterlimit="10" />
            <path
                d="m28.57 21.206-1.75-5.256c-.18-.53-.76-1.02-1.31-1.09-1.19-.15-3.37-.36-6.01-.36s-4.82.21-6.01.36c-.55.07-1.13.56-1.312 1.09l-.847 2.55"
                fill="none" id="XMLID_341_" stroke="#FFFAFA" stroke-linecap="round" stroke-linejoin="round"
                stroke-miterlimit="10" />
            <path
                d="M9.5 30.5v-16h0a2 2 0 0 0 2-2V11c0-1.375-1.125-2.5-2.5-2.5H4A2.5 2.5 0 0 0 1.5 11v1.5a2 2 0 0 0 2 2h0v5l-2 11"
                fill="none" id="XMLID_6327_" stroke="#FFFAFA" stroke-linecap="round" stroke-linejoin="round"
                stroke-miterlimit="10" />
            <circle cx="6.5" cy="4" fill="none" id="XMLID_6326_" r="2.5" stroke="#FFFAFA" stroke-linecap="round"
                stroke-linejoin="round" stroke-miterlimit="10" />
            <g id="XMLID_6270_">
                <path d="M9.5 13v-.32a1 1 0 0 0-1.164-.985l-3.672.61A1 1 0 0 1 3.5 11.32" fill="none" id="XMLID_6276_"
                    stroke="#FFFAFA" stroke-linecap="round" stroke-linejoin="round" stroke-miterlimit="10" />
                <polyline fill="none" id="XMLID_6274_" points=" 7.5 30.5 6.5 19 3.5 30.5" stroke="#FFFAFA"
                    stroke-linecap="round" stroke-linejoin="round" stroke-miterlimit="10" />
                <line fill="none" id="XMLID_6271_" stroke="#FFFAFA" stroke-linecap="round" stroke-linejoin="round"
                    stroke-miterlimit="10" x1="5.5" x2="9.5" y1="14.5" y2="14.5" />
            </g>
        </g>
    </g>
</svg>